<svg xmlns="http://www.w3.org/2000/svg" fill="none" viewBox="0 0 100 18">
    <g fill="#fff" clip-path="url(#a)">
        <path
            d="M16.7397.0917969h-4.7223L6.50774 7.35131 3.73136 11.2054V.464927H0V17.6195h3.73136v-.0118l.01676.0071 3.40585-5.0066 4.85153 4.8224h5.3301L9.42534 9.62788 16.7397.0917969ZM46.0985.371094h-3.7313V17.6603h3.7313V.371094ZM33.0808 1.90816C31.5514.691944 29.5505 0 27.2361 0c-5.3039 0-9.0017 3.68171-9.0017 9.01653C18.2344 14.3514 21.9298 18 27.2361 18c2.312 0 4.3153-.6872 5.8447-1.8964v1.5587h3.7314V.370769h-3.7314V1.90816ZM27.2361 14.8237c-3.1139 0-5.1674-2.2955-5.1674-5.84259 0-3.5471 2.0535-5.84256 5.1674-5.84256 3.1138 0 5.2033 2.26239 5.2033 5.84256 0 3.58019-2.0536 5.84259-5.2033 5.84259ZM72.9939 0c-5.3039 0-9.0017 3.68171-9.0017 9.01653C63.9922 14.3514 67.6877 18 72.9939 18s9.0352-3.6463 9.0352-8.98347C82.0291 3.67935 78.3336 0 72.9939 0Zm0 14.8237c-3.1139 0-5.1674-2.2955-5.1674-5.84259 0-3.5471 2.0535-5.84256 5.1674-5.84256 3.1138 0 5.2033 2.26239 5.2033 5.84256 0 3.58019-2.0536 5.84259-5.2033 5.84259ZM55.7626 1.51404V.371032h-3.7314V17.6602h3.7314V8.3461c.2537-3.15271 2.1589-5.11047 4.9496-5.11047.5003 0 .9742.06141 1.4122.18185V.191552c-.4548-.063763-.9263-.0968254-1.4122-.0968254-1.898 0-3.5805.5077404-4.9496 1.4193134Zm39.4767 6.28601-3.4561-.60693c-1.9507-.33771-2.841-.91157-2.841-2.16085 0-1.41931 1.2996-2.2624 3.3532-2.2624 2.1564 0 3.6954.98006 3.7313 2.73472h3.6955C99.6887 2.05903 96.5724.0351562 92.2954.0351562c-3.9707 0-7.0846 2.0262438-7.0846 5.1317238 0 2.46549 1.3355 4.22015 4.7581 4.79402l3.5256.6069c1.9841.3047 2.6686 1.0131 2.6686 2.3309 0 1.5185-1.369 2.364-3.6619 2.364-2.2929 0-3.9707-1.0462-4.0042-2.8363h-3.7314c.0694 3.3771 3.1833 5.571 7.8026 5.571 4.0736 0 7.4268-1.8586 7.4268-5.4364 0-2.6001-1.5054-4.18709-4.7581-4.76095h.0024Z" />
    </g>
    <defs>
        <clipPath id="a">
            <path fill="#fff" d="M0 0h100v18H0z" />
        </clipPath>
    </defs>
</svg>